<?xml version="1.0" encoding="UTF-8"?>
<svg version="1.1" xmlns="http://www.w3.org/2000/svg" width="780" height="320">
<path d="M0 0 C3.72775053 1.56066675 6.12205005 3.85662795 8.97705078 6.68652344 C9.45900406 7.16175949 9.94095734 7.63699554 10.43751526 8.12663269 C12.02878978 9.69892448 13.6124285 11.27863925 15.1953125 12.859375 C16.30892823 13.9665548 17.42269005 15.07358768 18.53659058 16.18048096 C20.87530809 18.50721914 23.20984975 20.83805917 25.54199219 23.17138672 C28.49680843 26.1264043 31.46503295 29.06752266 34.43721199 32.0050621 C36.74710866 34.29243259 39.04756548 36.58913049 41.34569931 38.88831329 C42.43384923 39.97413813 43.5251607 41.05680605 44.61996841 42.13591766 C54.4234724 51.81213489 63.40533146 62.43592666 69.3125 75 C69.6324292 75.6609668 69.9523584 76.32193359 70.28198242 77.00292969 C84.78263878 107.62070901 86.7737066 141.25180219 75.50390625 173.2109375 C69.24455009 189.45394558 60.0381386 203.43479754 48 216 C47.31550781 216.74765625 46.63101563 217.4953125 45.92578125 218.265625 C25.81485381 239.5289346 -4.96031313 252.03620087 -34 253 C-34.86238281 253.03996094 -35.72476563 253.07992187 -36.61328125 253.12109375 C-71.18976672 253.99190894 -102.23147747 239.25821526 -126.97476196 215.94198608 C-134.54259673 208.68524415 -141.8973513 201.20601531 -149.2935791 193.77508545 C-151.74591662 191.31236799 -154.20122253 188.85261352 -156.65625 186.39257812 C-161.44034265 181.59788181 -166.22123615 176.80000729 -171 172 C-169.87994369 168.63983107 -168.62788203 167.30935087 -166 165 C-165.34 165 -164.68 165 -164 165 C-163.60361328 164.11683105 -163.60361328 164.11683105 -163.19921875 163.21582031 C-161.95631056 160.91927416 -160.64993519 159.39166834 -158.8125 157.546875 C-158.19632813 156.928125 -157.58015625 156.309375 -156.9453125 155.671875 C-155.98238281 154.72054687 -155.98238281 154.72054687 -155 153.75 C-154.03707031 152.77546875 -154.03707031 152.77546875 -153.0546875 151.78125 C-152.43851563 151.16765625 -151.82234375 150.5540625 -151.1875 149.921875 C-150.34251953 149.08027832 -150.34251953 149.08027832 -149.48046875 148.22167969 C-148 147 -148 147 -146 147 C-146 146.34 -146 145.68 -146 145 C-144.25 142.8125 -144.25 142.8125 -142 141 C-137.9576648 141.23535769 -135.98578259 143.68092131 -133.27001953 146.46875 C-132.81399857 146.93236435 -132.3579776 147.3959787 -131.88813782 147.87364197 C-130.89892655 148.880949 -129.91313576 149.89162392 -128.93039322 150.90524292 C-127.36306521 152.52034926 -125.78554235 154.12482983 -124.20480347 155.72680664 C-119.71202518 160.2835306 -115.23724778 164.85772461 -110.77148438 169.44091797 C-108.0352018 172.24767525 -105.2860632 175.04134454 -102.52944565 177.828125 C-101.49213309 178.88196628 -100.45962841 179.94056691 -99.43255997 181.00439453 C-83.14647951 197.86975959 -63.33634132 207.80272876 -39.5 208.375 C-16.07742466 207.8126626 2.75201559 198.47414289 18.96875 182 C32.49650309 167.2856019 38.42268834 147.66004132 38.1484375 127.94140625 C36.4828768 94.93700608 15.30495751 74.96722854 -6.68847656 53.17419434 C-9.21339803 50.67003973 -11.73239243 48.15993688 -14.25195312 45.65039062 C-19.16231892 40.76122669 -24.07902171 35.87848171 -29 31 C-27.07139535 26.78323595 -24.17029862 23.91678209 -20.8984375 20.703125 C-20.00374252 19.81267487 -20.00374252 19.81267487 -19.0909729 18.90423584 C-17.1903019 17.01473373 -15.28278526 15.13231608 -13.375 13.25 C-12.08287532 11.96790935 -10.79120324 10.68536239 -9.5 9.40234375 C-6.33855521 6.26291568 -3.1709539 3.12982199 0 0 Z " fill="#FEFEFE" transform="translate(211,50)"/>
<path d="M0 0 C9.45060426 -0.07015531 18.90111603 -0.12313842 28.35192585 -0.15543652 C32.74244331 -0.17095422 37.13277993 -0.19193112 41.52319336 -0.22631836 C45.77670704 -0.2594169 50.03004914 -0.27695678 54.28368187 -0.28463173 C55.88962689 -0.2900863 57.49556477 -0.30073062 59.10143471 -0.31719017 C84.37836567 -0.56546852 109.66934012 3.58213037 128.6875 21.625 C145.97950394 39.3843554 151.42674081 61.55312825 151.3125 85.8125 C151.30831055 87.03646484 151.30412109 88.26042969 151.29980469 89.52148438 C151.18552694 98.69774458 150.41649372 107.13605106 148 116 C147.7215625 117.04542969 147.443125 118.09085937 147.15625 119.16796875 C141.25657197 138.82508563 127.64959643 156.46595105 110 167 C86.67486772 179.36083443 62.66546005 179.35914392 36.98095703 179.31567383 C33.20594832 179.30978941 29.43141611 179.32707519 25.65648651 179.3500185 C22.7311923 179.36469547 19.80601602 179.36563765 16.88069153 179.36250877 C15.48679128 179.36302165 14.09288437 179.36825315 12.69902039 179.37832069 C10.76878595 179.39059431 8.83845235 179.38198634 6.90820312 179.37231445 C5.81221802 179.37294388 4.71623291 179.3735733 3.58703613 179.3742218 C2.73331421 179.25072861 1.87959229 179.12723541 1 179 C-1.03344375 175.94983437 -1.24984917 175.37423318 -1.24723816 171.95202637 C-1.25143517 171.12771968 -1.25563217 170.30341299 -1.25995636 169.45412731 C-1.25433434 168.55080827 -1.24871231 167.64748922 -1.24291992 166.71679688 C-1.24479561 165.75963178 -1.2466713 164.80246668 -1.24860382 163.81629658 C-1.25227753 160.61703488 -1.24147851 157.4179924 -1.23046875 154.21875 C-1.22961209 151.95928462 -1.22953043 149.69981884 -1.23017883 147.44035339 C-1.22902462 141.37933109 -1.21467389 135.31840671 -1.19723511 129.25741196 C-1.18753823 125.51475611 -1.18168154 121.77211501 -1.17724609 118.02944946 C-1.13041859 78.68020552 -0.8251084 39.34088975 0 0 Z M40 35 C39.90237477 36.4017833 39.87368342 37.80844453 39.87301636 39.21362305 C39.87019653 40.12228119 39.86737671 41.03093933 39.86447144 41.96713257 C39.86649567 42.97184601 39.8685199 43.97655945 39.87060547 45.01171875 C39.86885315 46.0636441 39.86710083 47.11556946 39.86529541 48.19937134 C39.86087457 51.69543074 39.86381571 55.19144003 39.8671875 58.6875 C39.86651453 61.10506195 39.86554456 63.52262383 39.86428833 65.94018555 C39.86281104 71.01449221 39.86496691 76.08878131 39.86962891 81.16308594 C39.8753262 87.68384703 39.87204737 94.20456696 39.86605644 100.72532654 C39.86245167 105.71968906 39.86358903 110.71404174 39.86618423 115.70840454 C39.86685374 118.11349492 39.86602428 120.51858618 39.86370468 122.92367554 C39.86117952 126.27856835 39.86501683 129.6333935 39.87060547 132.98828125 C39.86858124 133.99299469 39.86655701 134.99770813 39.86447144 136.03286743 C39.86729126 136.94152557 39.87011108 137.85018372 39.87301636 138.78637695 C39.87339338 139.58058548 39.87377041 140.37479401 39.87415886 141.19306946 C39.80291088 143.02166812 39.80291088 143.02166812 41 144 C59.81364601 145.50181499 77.89048136 143.8750511 93.125 131.7734375 C103.98205831 121.50446985 108.39133093 106.57693248 109 92 C109.29174479 75.4908917 106.34781606 59.74835237 94.75 47.25 C86.85497174 39.8451287 77.85389896 36.08066986 67.1875 34.875 C66.45917969 34.79080811 65.73085938 34.70661621 64.98046875 34.61987305 C59.48413341 34.0392991 54.0255076 33.81840017 48.5 33.8125 C47.76418701 33.81169434 47.02837402 33.81088867 46.27026367 33.81005859 C42.84605968 33.55174222 42.84605968 33.55174222 40 35 Z " fill="#FEFEFE" transform="translate(307,13)"/>
<path d="M0 0 C1.59134472 0.0356002 3.18245456 0.08287591 4.77319336 0.1394043 C5.6114415 0.16205856 6.44968964 0.18471283 7.31333923 0.20805359 C9.08631468 0.25804437 10.85915562 0.31301451 12.63183594 0.37255859 C15.35517584 0.46336093 18.07859723 0.53801812 20.80249023 0.61010742 C22.52191945 0.66058907 24.24132197 0.71199005 25.96069336 0.7644043 C26.78046158 0.7873909 27.6002298 0.8103775 28.44483948 0.83406067 C34.18437038 1.03495632 34.18437038 1.03495632 35.30053711 2.15112305 C35.39955086 3.58253883 35.42961623 5.01879408 35.43183899 6.45362854 C35.43584717 7.38268005 35.43985535 8.31173157 35.44398499 9.26893616 C35.44345627 10.29683762 35.44292755 11.32473907 35.44238281 12.38378906 C35.44585724 13.46038788 35.44933167 14.53698669 35.45291138 15.64620972 C35.46028734 17.99578391 35.46562286 20.34536515 35.46920204 22.6949482 C35.47635749 26.425428 35.49202213 30.15577549 35.51054382 33.88621521 C35.56302177 44.49754324 35.61088936 55.10876651 35.62646484 65.72021484 C35.63660893 72.20544782 35.66610807 78.69035519 35.70778465 85.17545891 C35.72002151 87.63790345 35.72522943 90.10039419 35.72298622 92.56286812 C34.97156805 116.4549321 34.97156805 116.4549321 44.48413086 137.60424805 C51.15687247 143.2868409 58.62617661 145.39790428 67.30053711 145.15112305 C71.53315807 144.65106656 75.58016239 144.03213431 79.39819336 142.0769043 C81.30053711 141.15112305 81.30053711 141.15112305 84.30053711 141.15112305 C84.60991211 140.53237305 84.91928711 139.91362305 85.23803711 139.27612305 C85.92553711 137.90112305 86.61303711 136.52612305 87.30053711 135.15112305 C87.96053711 135.15112305 88.62053711 135.15112305 89.30053711 135.15112305 C89.7651758 133.84084194 90.22178292 132.52771316 90.67553711 131.21362305 C90.93077148 130.48272461 91.18600586 129.75182617 91.44897461 128.9987793 C93.79787775 121.143961 94.59546923 113.90943295 94.58764648 105.7121582 C94.59447952 104.6037558 94.60131256 103.49535339 94.60835266 102.35336304 C94.62187866 99.96190014 94.63097158 97.57040884 94.63606262 95.17891312 C94.64438275 91.39671085 94.66491311 87.6147464 94.68859863 83.83261108 C94.7407799 75.13097542 94.77513911 66.42930853 94.80835724 57.72758484 C94.84149182 49.09633293 94.8822644 40.46520975 94.93647766 31.83405685 C94.95658274 28.10311076 94.96487023 24.3722549 94.97277832 20.64126587 C94.98574402 18.36541408 94.99926333 16.08956535 95.01342773 13.8137207 C95.01244583 12.77266174 95.01146393 11.73160278 95.01045227 10.65899658 C95.01872543 9.70866547 95.0269986 8.75833435 95.03552246 7.77920532 C95.03845558 6.95298487 95.0413887 6.12676441 95.04441071 5.27550697 C95.30053711 3.15112305 95.30053711 3.15112305 97.30053711 0.15112305 C100.20404297 -0.05658502 102.87887056 -0.07937227 105.77319336 0.04174805 C106.6114415 0.06581726 107.44968964 0.08988647 108.31333923 0.11468506 C110.0864012 0.16838263 111.85925438 0.22939353 113.63183594 0.29711914 C116.35511349 0.40082132 119.07837385 0.48303262 121.80249023 0.5612793 C123.52193163 0.61601569 125.24133496 0.67196402 126.96069336 0.72924805 C127.78046158 0.7553717 128.6002298 0.78149536 129.44483948 0.80841064 C135.18323699 1.03382293 135.18323699 1.03382293 136.30053711 2.15112305 C136.40662298 5.23677759 136.44731035 8.3001669 136.44580078 11.38647461 C136.44915939 12.35750626 136.45251801 13.3285379 136.45597839 14.32899475 C136.46553771 17.56659197 136.46743537 20.80413755 136.46850586 24.04174805 C136.47171998 26.29929628 136.47508417 28.5568443 136.47859192 30.81439209 C136.48459903 35.56938152 136.4864307 40.32435275 136.48583984 45.0793457 C136.48573926 51.1161397 136.49927517 57.1528133 136.51661205 63.18957901 C136.52785334 67.86735547 136.52975521 72.54510419 136.52923012 77.22289276 C136.53039654 79.44399167 136.5347414 81.66509162 136.54256248 83.88617706 C136.7264636 141.61389248 136.7264636 141.61389248 118.30053711 162.15112305 C117.68178711 162.85108398 117.06303711 163.55104492 116.42553711 164.2722168 C105.12008784 176.32984313 90.2925 181.5468813 74.07965088 182.08354187 C72.34281363 182.12225928 70.60577509 182.15277081 68.86865234 182.17529297 C66.23654089 182.21364485 63.60902097 182.30005105 60.97827148 182.39135742 C50.95012309 182.65194371 42.68978472 181.99350843 33.30053711 178.15112305 C32.11975586 177.6819043 30.93897461 177.21268555 29.72241211 176.72924805 C14.19864209 169.01275418 5.08898931 157.02986868 -0.89477539 140.9362793 C-6.52861745 123.05404728 -6.00205137 104.06759139 -5.96508789 85.5222168 C-5.96643829 83.11035625 -5.96838194 80.69849597 -5.97088623 78.28663635 C-5.97381022 73.27700156 -5.96962209 68.26743883 -5.96020508 63.2578125 C-5.94870663 56.82730479 -5.95545217 50.39696216 -5.96735001 43.96646023 C-5.97455338 39.00725543 -5.97228953 34.0480903 -5.96709442 29.08888435 C-5.96575911 26.71532229 -5.96740151 24.34175665 -5.97205353 21.96819878 C-5.97710497 18.67287372 -5.96943282 15.37782394 -5.95825195 12.08251953 C-5.96230042 11.10032944 -5.96634888 10.11813934 -5.97052002 9.10618591 C-5.96488037 8.21375183 -5.95924072 7.32131775 -5.95343018 6.40184021 C-5.95267612 5.62455787 -5.95192207 4.84727552 -5.95114517 4.04643917 C-5.43210061 0.13772731 -3.65257314 0.1492076 0 0 Z " fill="#FEFEFE" transform="translate(630.699462890625,11.848876953125)"/>
<path d="M0 0 C0.7115625 -0.01933594 1.423125 -0.03867188 2.15625 -0.05859375 C9.51466943 1.49893836 14.74448078 8.48626939 19.75 13.625 C21.35716218 15.26649238 22.96643122 16.90592548 24.578125 18.54296875 C25.28356445 19.26637451 25.98900391 19.98978027 26.71582031 20.73510742 C28.40201253 22.51096166 28.40201253 22.51096166 30.5 23.4375 C29.22113231 26.24137058 27.89618952 28.28998535 25.71591187 30.46209717 C25.14941422 31.03134415 24.58291656 31.60059113 23.99925232 32.18708801 C23.37994339 32.79920639 22.76063446 33.41132477 22.12255859 34.04199219 C21.46877731 34.69606552 20.81499603 35.35013885 20.1414032 36.02403259 C17.98178862 38.18225514 15.8151788 40.33330936 13.6484375 42.484375 C12.14870384 43.98037809 10.64941147 45.47682369 9.15054321 46.97369385 C5.20610188 50.91050225 1.25569106 54.84126734 -2.69598389 58.77081299 C-6.72802153 62.78238498 -10.75439714 66.79963094 -14.78125 70.81640625 C-22.68196213 78.69567445 -30.5889909 86.56857125 -38.5 94.4375 C-37.26748533 98.13504402 -35.49126323 99.05982923 -32.5 101.4375 C-32.5 102.0975 -32.5 102.7575 -32.5 103.4375 C-31.51 103.7675 -30.52 104.0975 -29.5 104.4375 C-29.5 105.0975 -29.5 105.7575 -29.5 106.4375 C-28.93835144 106.67448608 -28.37670288 106.91147217 -27.79803467 107.15563965 C-24.96855651 108.73394302 -23.02585939 110.65727109 -20.73144531 112.94726562 C-20.27244339 113.40276291 -19.81344147 113.85826019 -19.3405304 114.32756042 C-17.83133945 115.8279793 -16.32954588 117.33555885 -14.828125 118.84375 C-13.78038275 119.89014477 -12.73234378 120.93624251 -11.684021 121.98205566 C-9.4919715 124.17116043 -7.3035712 126.36383269 -5.11767578 128.55908203 C-2.31094246 131.37723769 0.50471138 134.18628255 3.32313156 136.99274445 C5.4868103 139.14921108 7.64572128 141.31040001 9.80319977 143.47306824 C10.83998925 144.51119455 11.87827381 145.54782988 12.91805267 146.58296204 C14.36653819 148.02639012 15.80796724 149.47688911 17.24902344 150.92773438 C18.07190857 151.75221069 18.8947937 152.57668701 19.74261475 153.42614746 C21.5 155.4375 21.5 155.4375 21.5 157.4375 C22.04269531 157.66050781 22.58539063 157.88351563 23.14453125 158.11328125 C26.24982243 159.85904196 28.66109508 162.15213479 31.1875 164.625 C31.93483398 165.31045898 31.93483398 165.31045898 32.69726562 166.00976562 C35.20559772 168.46364275 36.47618825 170.35804104 37.48608398 173.72802734 C37.50169264 177.88869213 36.63108445 179.25316611 33.7774353 182.19468689 C32.94014389 182.99357079 32.94014389 182.99357079 32.0859375 183.80859375 C31.51928375 184.37578629 30.95263 184.94297882 30.36880493 185.52735901 C29.16927276 186.71920544 27.95994962 187.90126778 26.74169922 189.07397461 C24.87913993 190.87100572 23.05373738 192.70031501 21.23046875 194.53710938 C20.05933276 195.69217731 18.88621865 196.84524377 17.7109375 197.99609375 C17.16488861 198.54285263 16.61883972 199.08961151 16.0562439 199.65293884 C12.17040641 203.34987159 12.17040641 203.34987159 9.03226948 203.76005554 C6.01160954 203.37528978 5.13431881 202.69067717 3.01347351 200.55224609 C2.36712448 199.91277039 1.72077545 199.27329468 1.05484009 198.61444092 C0.36216034 197.90378479 -0.33051941 197.19312866 -1.04418945 196.4609375 C-2.1571917 195.34903046 -2.1571917 195.34903046 -3.29267883 194.21466064 C-5.74491479 191.75893834 -8.17896283 189.28597429 -10.61328125 186.8125 C-12.30898218 185.1074748 -14.00578964 183.40354942 -15.70365906 181.70068359 C-20.17158223 177.21366077 -24.62428859 172.71182599 -29.07403564 168.20678711 C-33.61646782 163.61322764 -38.1730698 159.03377262 -42.72851562 154.453125 C-51.66630015 145.46170024 -60.58856919 136.45504075 -69.5 127.4375 C-72.30387058 128.71636769 -74.35248535 130.04131048 -76.52459717 132.22158813 C-77.09384415 132.78808578 -77.66309113 133.35458344 -78.24958801 133.93824768 C-78.86170639 134.55755661 -79.47382477 135.17686554 -80.10449219 135.81494141 C-80.75856552 136.46872269 -81.41263885 137.12250397 -82.08653259 137.7960968 C-84.24475514 139.95571138 -86.39580936 142.1223212 -88.546875 144.2890625 C-90.04287809 145.78879616 -91.53932369 147.28808853 -93.03619385 148.78695679 C-96.97300225 152.73139812 -100.90376734 156.68180894 -104.83331299 160.63348389 C-108.84488498 164.66552153 -112.86213094 168.69189714 -116.87890625 172.71875 C-124.75817445 180.61946213 -132.63107125 188.5264909 -140.5 196.4375 C-146.01728889 193.82391436 -149.77741384 189.52865693 -154.0625 185.25 C-155.35704102 183.99219727 -155.35704102 183.99219727 -156.67773438 182.70898438 C-166.01925624 173.41101273 -166.01925624 173.41101273 -166.71484375 166.21484375 C-165.71278583 159.56738908 -162.5998752 154.85739184 -157.5 150.4375 C-156.84 150.4375 -156.18 150.4375 -155.5 150.4375 C-154.51 148.4575 -154.51 148.4575 -153.5 146.4375 C-152.84 146.4375 -152.18 146.4375 -151.5 146.4375 C-151.5 145.7775 -151.5 145.1175 -151.5 144.4375 C-150.27116394 143.22866821 -150.27116394 143.22866821 -148.42651367 141.73291016 C-141.45821019 135.80022815 -135.1298684 129.18991589 -128.67578125 122.7109375 C-127.24209716 121.27538458 -125.80818934 119.84005506 -124.37406921 118.40493774 C-120.61735502 114.64442581 -116.86365216 110.88092221 -113.1105957 107.11676025 C-109.29364411 103.28956983 -105.47385616 99.46521262 -101.65429688 95.640625 C-95.48702988 89.46459393 -89.32147639 83.28685863 -83.15821838 77.10682678 C-82.3448703 76.29131096 -82.3448703 76.29131096 -81.51509094 75.45932007 C-81.00511881 74.94734447 -80.49514668 74.43536888 -79.96972084 73.90787888 C-78.55664174 72.4941671 -77.13489865 71.08913163 -75.71281433 69.68447876 C-73.46948668 67.50055261 -73.46948668 67.50055261 -71.6875 65.0625 C-69.17367874 62.04591449 -66.35997104 59.67077181 -63.37890625 57.12890625 C-61.12632775 55.10111729 -59.3835911 52.80717913 -57.5 50.4375 C-56.39137622 49.46026866 -55.26457445 48.50345581 -54.125 47.5625 C-50.91707196 44.91337233 -48.3369855 42.0174652 -45.76171875 38.7578125 C-45.34535156 38.32210937 -44.92898437 37.88640625 -44.5 37.4375 C-43.84 37.4375 -43.18 37.4375 -42.5 37.4375 C-42.22951843 36.84268326 -41.95903687 36.24786652 -41.68035889 35.63502502 C-40.5107274 33.45747166 -39.34584148 32.02431406 -37.61425781 30.27709961 C-36.74259979 29.39114357 -36.74259979 29.39114357 -35.85333252 28.48728943 C-35.22626404 27.86113235 -34.59919556 27.23497528 -33.953125 26.58984375 C-32.97989288 25.61018394 -32.97989288 25.61018394 -31.98699951 24.61073303 C-30.61432883 23.23232624 -29.2390389 21.85652354 -27.86132812 20.4831543 C-25.76281631 18.38779704 -23.67795926 16.27949427 -21.59375 14.16992188 C-20.2560201 12.82991829 -18.91750365 11.49069936 -17.578125 10.15234375 C-16.95915344 9.52416245 -16.34018188 8.89598114 -15.70245361 8.24876404 C-11.18656491 3.78025257 -6.66523113 0.01207469 0 0 Z " fill="#FEFEFE" transform="translate(171.5,14.5625)"/>
<path d="M0 0 C1.49192194 0.00138269 1.49192194 0.00138269 3.01398373 0.00279331 C4.15126919 0.00141865 5.28855465 0.00004398 6.46030331 -0.00137234 C7.71905773 0.00222294 8.97781216 0.00581821 10.27471066 0.00952244 C11.59158871 0.00937641 12.90846676 0.00923038 14.26525021 0.00907993 C17.88698982 0.00879196 21.5086966 0.01468859 25.13042855 0.02165389 C28.91142598 0.02788753 32.69242409 0.02849124 36.47342587 0.0296793 C43.63805004 0.03279258 50.80265904 0.04100594 57.96727651 0.05102879 C66.12191876 0.06219001 74.27656171 0.0677004 82.43120968 0.07272422 C99.21035247 0.08318855 115.98947433 0.101534 132.76860714 0.12304783 C132.76860714 11.34304783 132.76860714 22.56304783 132.76860714 34.12304783 C129.28071257 34.82062674 126.77145411 35.2469235 123.34551144 35.23657322 C122.50501751 35.23649769 121.66452358 35.23642216 120.79856014 35.23634434 C119.90566784 35.23118305 119.01277554 35.22602177 118.09282589 35.22070408 C117.16766674 35.21928913 116.24250759 35.21787418 115.28931332 35.21641636 C112.34487787 35.21083498 109.40051946 35.19828588 106.45610714 35.18554783 C104.4554572 35.18053042 102.45480606 35.17596794 100.45415401 35.17187595 C95.5589422 35.16087164 90.66378772 35.1436198 85.76860714 35.12304783 C85.76952893 35.85910975 85.77045073 36.59517168 85.77140045 37.35353851 C85.79345467 55.23765298 85.8100182 73.12176474 85.82041931 91.00588989 C85.82558249 99.65440388 85.83262562 108.3029088 85.84404659 116.95141697 C85.85399275 124.48669362 85.8604604 132.02196371 85.86269563 139.55724674 C85.86400286 143.54960635 85.86708944 147.54194719 85.8743372 151.5343008 C85.88109634 155.28771881 85.88322432 159.04111022 85.88171482 162.79453373 C85.8819912 164.17607677 85.88399695 165.55762064 85.88781261 166.93915844 C85.89274813 168.81741928 85.8910051 170.69569421 85.88886166 172.5739603 C85.88978345 173.62756968 85.89070524 174.68117907 85.89165497 175.766716 C85.76860714 178.12304783 85.76860714 178.12304783 84.76860714 179.12304783 C81.89596658 179.22411657 79.04787086 179.26274455 76.17485714 179.25586033 C75.31299801 179.25681705 74.45113888 179.25777378 73.5631628 179.2587595 C71.73727502 179.25944132 69.91138483 179.25758687 68.08550167 179.25341892 C65.28059636 179.24807069 62.47585119 179.25336382 59.67095089 179.25976658 C57.90141928 179.2591058 56.13188778 179.25782464 54.36235714 179.25586033 C53.51757809 179.25788456 52.67279903 179.25990879 51.80242062 179.26199436 C45.88355745 179.23799814 45.88355745 179.23799814 44.76860714 178.12304783 C44.36997279 173.57501385 44.32882423 168.99870274 44.20610714 164.43554783 C44.18526058 163.69365208 44.16441402 162.95175632 44.14293575 162.18737888 C42.98835066 119.52451341 43.59297438 76.7772555 44.76860714 34.12304783 C43.82150875 34.3653513 43.82150875 34.3653513 42.85527706 34.61254978 C38.68458827 35.3023315 34.60247075 35.28558519 30.38188839 35.29101658 C29.48366863 35.29434498 28.58544888 35.29767338 27.66001034 35.30110264 C25.76807319 35.30615159 23.87612719 35.30851159 21.98418331 35.30835056 C19.08079768 35.31054806 16.17778553 35.32875507 13.27446651 35.3476572 C11.43527511 35.35058928 9.59608189 35.35257532 7.75688839 35.35351658 C6.45066273 35.36429485 6.45066273 35.36429485 5.11804867 35.37529087 C-1.00255491 35.35188578 -1.00255491 35.35188578 -3.23139286 33.12304783 C-3.41853273 30.69737663 -3.48724564 28.38807116 -3.46186161 25.96289158 C-3.46140339 25.25781971 -3.46094517 24.55274784 -3.46047306 23.82631016 C-3.45745149 22.3359315 -3.44956796 20.84555599 -3.43720341 19.35522556 C-3.41893742 17.0661315 -3.41669377 14.77744156 -3.41693974 12.4882822 C-3.41202492 11.04231514 -3.40619676 9.59635084 -3.39936161 8.15039158 C-3.39824879 7.46186604 -3.39713596 6.77334049 -3.39598942 6.06395054 C-3.33683279 0.18400616 -3.33683279 0.18400616 0 0 Z " fill="#FEFEFE" transform="translate(468.2313928604126,12.876952171325684)"/>
<path d="M0 0 C12.21 0 24.42 0 37 0 C40.17794796 5.72030633 42.83262855 10.65527454 44.9375 16.6875 C47.25594687 23.09927768 49.82802287 29.35241472 52.55078125 35.60546875 C55.68737009 42.95235744 58.51469066 50.40850966 61 58 C63.37207741 55.62792259 64.19005928 53.54172396 65.50390625 50.453125 C65.9932666 49.3079541 66.48262695 48.1627832 66.98681641 46.98291016 C67.51229741 45.73871365 68.03751982 44.4944079 68.5625 43.25 C69.10052643 41.98346675 69.63877687 40.71702865 70.17724609 39.45068359 C73.53926145 31.52803773 76.8553589 23.58622298 80.125 15.625 C80.49052979 14.73586914 80.85605957 13.84673828 81.23266602 12.93066406 C81.57096436 12.10018555 81.9092627 11.26970703 82.2578125 10.4140625 C82.5480127 9.7020166 82.83821289 8.9899707 83.13720703 8.25634766 C84.17757456 5.53561289 85.07887231 2.76338308 86 0 C98.21 0 110.42 0 123 0 C123.02255001 11.58688749 123.0409145 23.17376052 123.05181217 34.76066494 C123.05704125 40.14033762 123.06413935 45.51999458 123.07543945 50.8996582 C123.08626745 56.08674843 123.09227665 61.27382349 123.09487724 66.46092415 C123.09673165 68.4445628 123.10035256 70.42820058 123.10573006 72.41183281 C123.11293932 75.18009136 123.11399099 77.94828638 123.11352539 80.71655273 C123.11712067 81.54517319 123.12071594 82.37379364 123.12442017 83.2275238 C123.11405216 88.88594784 123.11405216 88.88594784 122 90 C120.23140807 90.09946453 118.45888549 90.13080217 116.6875 90.1328125 C115.61242187 90.13410156 114.53734375 90.13539063 113.4296875 90.13671875 C112.29789063 90.13285156 111.16609375 90.12898438 110 90.125 C108.86820313 90.12886719 107.73640625 90.13273437 106.5703125 90.13671875 C105.49523437 90.13542969 104.42015625 90.13414062 103.3125 90.1328125 C102.31863281 90.13168457 101.32476563 90.13055664 100.30078125 90.12939453 C98 90 98 90 97 89 C96.8768483 87.25161165 96.82212189 85.49835496 96.79467773 83.74584961 C96.7647599 82.06421974 96.7647599 82.06421974 96.73423767 80.34861755 C96.71752518 79.1288472 96.70081268 77.90907684 96.68359375 76.65234375 C96.66281265 75.41078018 96.64203156 74.16921661 96.62062073 72.89002991 C96.56616391 69.58400877 96.51595795 66.27797755 96.46777344 62.97186279 C96.41760144 59.60032509 96.36189299 56.22887947 96.30664062 52.85742188 C96.19929962 46.23835449 96.09755802 39.6192184 96 33 C92.841733 39.1407869 89.94060962 45.29611636 87.40625 51.71875 C87.09224243 52.50213745 86.77823486 53.2855249 86.45471191 54.09265137 C85.46576075 56.56017364 84.48217356 59.02977287 83.5 61.5 C75.42979767 81.79705702 75.42979767 81.79705702 71 90 C67.72946483 90.11608726 64.4594582 90.18720711 61.1875 90.25 C60.25873047 90.28351563 59.32996094 90.31703125 58.37304688 90.3515625 C57.0340332 90.37089844 57.0340332 90.37089844 55.66796875 90.390625 C54.84578857 90.41157227 54.0236084 90.43251953 53.17651367 90.45410156 C51 90 51 90 49.35009766 88.29736328 C47.92059039 85.86487442 46.79577326 83.46462679 45.73046875 80.8515625 C45.31966064 79.85310303 44.90885254 78.85464355 44.4855957 77.82592773 C44.05722412 76.76962158 43.62885254 75.71331543 43.1875 74.625 C42.28948538 72.4412323 41.39105025 70.25763748 40.4921875 68.07421875 C39.84588379 66.49713135 39.84588379 66.49713135 39.18652344 64.88818359 C35.75541973 56.53634062 32.15875708 48.27199793 28.32421875 40.09765625 C28.00304077 39.41127075 27.68186279 38.72488525 27.35095215 38.0177002 C26.56802864 36.34479294 25.78411771 34.67234785 25 33 C24.98969254 33.69935165 24.97938507 34.39870331 24.96876526 35.11924744 C24.87094968 41.69713663 24.76845843 48.2749342 24.66066074 54.85266781 C24.60540198 58.23467122 24.55197744 61.61668324 24.50268555 64.9987793 C24.44599054 68.88339427 24.38142415 72.76785878 24.31640625 76.65234375 C24.29133751 78.48199928 24.29133751 78.48199928 24.26576233 80.34861755 C24.24581711 81.46970413 24.22587189 82.59079071 24.20532227 83.74584961 C24.18977798 84.73846298 24.1742337 85.73107635 24.15821838 86.75376892 C24 89 24 89 23 90 C21.36527118 90.08700342 19.72685945 90.10701063 18.08984375 90.09765625 C17.10048828 90.09443359 16.11113281 90.09121094 15.09179688 90.08789062 C14.05087891 90.07951172 13.00996094 90.07113281 11.9375 90.0625 C10.89271484 90.05798828 9.84792969 90.05347656 8.77148438 90.04882812 C6.1809334 90.03699913 3.59049441 90.02051689 1 90 C0.21550865 84.47283673 -0.14069829 79.14220414 -0.11352539 73.56445312 C-0.11367142 72.76349213 -0.11381744 71.96253113 -0.1139679 71.13729858 C-0.1132773 68.51858711 -0.10552529 65.89994888 -0.09765625 63.28125 C-0.09578903 61.45422403 -0.09436656 59.62719755 -0.09336853 57.8001709 C-0.08956726 53.01296585 -0.07975758 48.22579159 -0.06866455 43.43859863 C-0.05659101 37.68322384 -0.05203681 31.92783869 -0.04621124 26.17245483 C-0.03654438 17.44828187 -0.01737115 8.72417634 0 0 Z M23 24 C24 27 24 27 24 27 Z M97 25 C98 27 98 27 98 27 Z " fill="#FDFDFD" transform="translate(460,200)"/>
<path d="M0 0 C1.29035156 -0.00257813 2.58070313 -0.00515625 3.91015625 -0.0078125 C4.90571533 -0.00152832 4.90571533 -0.00152832 5.92138672 0.00488281 C7.93357748 0.01556272 9.94486837 0.00496938 11.95703125 -0.0078125 C29.83251904 0.02783154 29.83251904 0.02783154 34.0703125 4.265625 C34.29736328 6.23681641 34.29736328 6.23681641 34.265625 8.6171875 C34.25917969 9.46796875 34.25273438 10.31875 34.24609375 11.1953125 C34.22095703 12.52949219 34.22095703 12.52949219 34.1953125 13.890625 C34.18628906 14.7878125 34.17726563 15.685 34.16796875 16.609375 C34.1443622 18.82839086 34.1114356 21.04687577 34.0703125 23.265625 C32.62174981 22.95744818 31.17398196 22.64553358 29.7265625 22.33203125 C28.92025391 22.15873291 28.11394531 21.98543457 27.28320312 21.80688477 C25.0703125 21.265625 25.0703125 21.265625 22.5703125 20.203125 C18.80656998 18.79172156 15.06041301 18.5459752 11.0703125 18.265625 C10.32265625 18.19988281 9.575 18.13414062 8.8046875 18.06640625 C2.75247064 17.75956309 -1.61861265 19.45314092 -6.9296875 22.265625 C-7.59981172 25.0515436 -7.59981172 25.0515436 -6.9296875 28.265625 C-2.35941171 32.87634571 4.61804287 34.68541318 10.546875 36.8828125 C14.30977949 38.3596065 17.94084792 39.9908563 21.5703125 41.765625 C22.694375 42.3121875 23.8184375 42.85875 24.9765625 43.421875 C30.69048792 46.82714368 35.60529322 51.96933163 38.3203125 58.078125 C39.95852342 65.04052142 39.49844228 70.99287689 36.0703125 77.265625 C29.79280466 86.36635065 22.23211626 89.61743272 11.59765625 91.73046875 C5.68101996 92.56938448 -0.27655857 92.55639838 -6.2421875 92.578125 C-7.90580322 92.58634277 -7.90580322 92.58634277 -9.60302734 92.59472656 C-19.1832482 92.51130774 -26.09124954 91.05352698 -34.9296875 87.265625 C-35.4246875 76.870625 -35.4246875 76.870625 -35.9296875 66.265625 C-31.10073676 67.47286269 -26.57142952 69.2757376 -21.94921875 71.09375 C-10.80946153 75.37343074 -1.14297635 75.00338795 10.0703125 71.265625 C11.27968298 68.33233025 11.27968298 68.33233025 10.7578125 65.390625 C7.06867577 58.55889031 -1.97889275 56.85701905 -8.9296875 54.328125 C-18.81546892 50.71129136 -28.11039519 46.50205988 -33.9296875 37.265625 C-36.311037 31.49701112 -36.57267863 25.27281132 -34.9296875 19.265625 C-33.47425673 16.120171 -31.7983482 13.1823906 -29.9296875 10.265625 C-29.2696875 10.265625 -28.6096875 10.265625 -27.9296875 10.265625 C-27.9296875 9.605625 -27.9296875 8.945625 -27.9296875 8.265625 C-24.9296875 6.265625 -24.9296875 6.265625 -20.9296875 6.265625 C-20.9296875 5.605625 -20.9296875 4.945625 -20.9296875 4.265625 C-18.59635417 3.59895833 -16.26302083 2.93229167 -13.9296875 2.265625 C-12.87193115 1.92805176 -11.8141748 1.59047852 -10.72436523 1.24267578 C-6.97692784 0.27778841 -3.85738751 0.00748281 0 0 Z " fill="#FDFDFD" transform="translate(721.9296875,198.734375)"/>
<path d="M0 0 C20.79 0 41.58 0 63 0 C63 5.94 63 11.88 63 18 C59.88045872 19.55977064 56.57040616 19.12104126 53.1484375 19.09765625 C52.37440582 19.0962413 51.60037415 19.09482635 50.80288696 19.09336853 C48.32688558 19.08776403 45.85097412 19.07521083 43.375 19.0625 C41.69791797 19.05748558 40.02083453 19.05292257 38.34375 19.04882812 C34.22910403 19.03864336 30.11465285 19.01906894 26 19 C26 24.28 26 29.56 26 35 C37.22 35.33 48.44 35.66 60 36 C61 48 61 48 59 54 C48.11 54 37.22 54 26 54 C26 59.61 26 65.22 26 71 C28.35125 70.979375 30.7025 70.95875 33.125 70.9375 C43.76494001 70.89370545 54.37745715 71.44271297 65 72 C65.92902735 75.44643663 66.16551193 78.54534161 66.1875 82.125 C66.20167969 83.17945313 66.21585938 84.23390625 66.23046875 85.3203125 C66 88 66 88 64 90 C61.37449646 90.24723816 61.37449646 90.24723816 58.00561523 90.24291992 C56.74768661 90.24599655 55.489758 90.24907318 54.19371033 90.25224304 C52.81533628 90.24534582 51.43696404 90.23807889 50.05859375 90.23046875 C48.6513727 90.22927704 47.24415085 90.22882377 45.83692932 90.2290802 C42.88708521 90.22751513 39.93736242 90.21922299 36.98754883 90.20581055 C33.19868171 90.18880504 29.40994783 90.18499663 25.62104702 90.18575573 C22.71550719 90.18548437 19.80999672 90.18000893 16.90446663 90.17275429 C15.50696091 90.16956334 14.10945184 90.16759922 12.71194267 90.16686058 C10.76294643 90.16470242 8.81396248 90.15517313 6.86499023 90.14526367 C5.75405502 90.14145187 4.64311981 90.13764008 3.4985199 90.13371277 C1 90 1 90 0 89 C-0.09517803 86.23061034 -0.12554265 83.48622841 -0.11352539 80.71655273 C-0.11367142 79.84833893 -0.11381744 78.98012512 -0.1139679 78.08560181 C-0.11326846 75.20157414 -0.10547463 72.3176102 -0.09765625 69.43359375 C-0.09579218 67.43962133 -0.09436823 65.44564845 -0.09336853 63.45167542 C-0.08954248 58.19254298 -0.07971145 52.93343797 -0.06866455 47.67431641 C-0.05665815 41.3701255 -0.05204861 35.06592544 -0.04621124 28.76172638 C-0.03649974 19.17446515 -0.01734379 9.58726416 0 0 Z " fill="#FDFDFD" transform="translate(608,200)"/>
<path d="M0 0 C0.78964645 0.00202423 1.57929291 0.00404846 2.39286804 0.00613403 C3.63425789 0.00350555 3.63425789 0.00350555 4.90072632 0.00082397 C7.65008104 -0.00359537 10.39937199 -0.00065627 13.14872742 0.00271606 C15.0506237 0.00204305 16.9525199 0.00107304 18.85441589 -0.00018311 C22.84591997 -0.00166019 26.83740171 0.00049482 30.8289032 0.00515747 C35.95738248 0.01085476 41.08580944 0.00757582 46.2142868 0.00158501 C50.14321795 -0.00202032 54.0721366 -0.00088215 58.00106812 0.0017128 C59.89259853 0.00238215 61.78413007 0.00155338 63.67565918 -0.00076675 C66.31449918 -0.00329282 68.95325323 0.00054665 71.59208679 0.00613403 C72.77655647 0.00309769 72.77655647 0.00309769 73.98495483 0 C79.3782149 0.02126605 79.3782149 0.02126605 80.49247742 1.13552856 C80.61905963 3.79375514 80.67767956 6.4144028 80.67997742 9.07302856 C80.69222351 9.81488403 80.7044696 10.5567395 80.71708679 11.32107544 C80.72236219 13.26066486 80.61436644 15.19976566 80.49247742 17.13552856 C78.49247742 19.13552856 78.49247742 19.13552856 75.69511414 19.36257935 C74.53254089 19.35210571 73.36996765 19.34163208 72.17216492 19.33084106 C70.28691101 19.3211731 70.28691101 19.3211731 68.36357117 19.31130981 C67.04486023 19.294552 65.72614929 19.27779419 64.36747742 19.26052856 C63.02764021 19.25049839 61.6877959 19.2413726 60.34794617 19.23318481 C57.06261169 19.20954931 53.77763277 19.1766009 50.49247742 19.13552856 C50.49469803 20.01027328 50.49691864 20.88501801 50.49920654 21.78627014 C50.5192072 30.01228203 50.53445039 38.2382858 50.54428959 46.46431637 C50.54951798 50.69384227 50.55661481 54.92334816 50.56791687 59.15286255 C50.57874733 63.23121399 50.58475459 67.30954613 50.58735466 71.38791084 C50.58920862 72.94730496 50.59282869 74.50669797 50.59820747 76.06608391 C50.60542003 78.24282018 50.60646827 80.41947571 50.60600281 82.59622192 C50.60822342 83.83754379 50.61044403 85.07886566 50.61273193 86.35780334 C50.49247742 89.13552856 50.49247742 89.13552856 49.49247742 90.13552856 C47.6387813 90.22290502 45.78180201 90.2425101 43.92607117 90.23318481 C42.80136414 90.22996216 41.6766571 90.2267395 40.51786804 90.22341919 C39.33386414 90.21504028 38.14986023 90.20666138 36.92997742 90.19802856 C35.74210632 90.19351685 34.55423523 90.18900513 33.33036804 90.18435669 C30.38435516 90.17252531 27.43844061 90.15604143 24.49247742 90.13552856 C23.05375608 87.25808589 23.37310589 84.78986934 23.37895203 81.57449341 C23.378806 80.90120499 23.37865997 80.22791656 23.37850952 79.53422546 C23.37920715 77.30493975 23.38699252 75.07573721 23.39482117 72.84646606 C23.39668588 71.30232794 23.39810953 69.75818922 23.39910889 68.21405029 C23.40292987 64.14682384 23.4127566 60.07963301 23.42381287 56.01242065 C23.43403597 51.86335736 23.43860844 47.71428832 23.44364929 43.56521606 C23.45437923 35.42196872 23.47197266 27.27875717 23.49247742 19.13552856 C13.92247742 19.13552856 4.35247742 19.13552856 -5.50752258 19.13552856 C-7.09449103 15.96159168 -6.65066728 12.55378652 -6.63252258 9.07302856 C-6.63638977 8.32730591 -6.64025696 7.58158325 -6.64424133 6.81326294 C-6.63243661 0.31476282 -6.48401118 0.02556697 0 0 Z " fill="#FEFEFE" transform="translate(313.5075225830078,199.86447143554688)"/>
<path d="M0 0 C0.33 0.66 0.66 1.32 1 2 C8.92 1.67 16.84 1.34 25 1 C26.24620457 4.73861372 26.14752363 8.2174302 26.14526367 12.11157227 C26.14862228 12.93785126 26.1519809 13.76413025 26.15544128 14.615448 C26.16494755 17.34911599 26.166894 20.08272275 26.16796875 22.81640625 C26.17118072 24.71304856 26.17454475 26.60969062 26.17805481 28.5063324 C26.18404467 32.48168513 26.18589477 36.45701612 26.18530273 40.43237305 C26.18520093 45.5360733 26.1988727 50.63963499 26.21607494 55.74330235 C26.22716908 59.65940497 26.22922277 63.57547377 26.22869301 67.4915905 C26.22987629 69.37392595 26.2343174 71.25626219 26.24202538 73.13858223 C26.2517765 75.76509581 26.24896708 78.39130421 26.24291992 81.01782227 C26.24853943 81.80073135 26.25415894 82.58364044 26.25994873 83.39027405 C26.22831796 88.77168204 26.22831796 88.77168204 24 91 C21.58569336 91.24291992 21.58569336 91.24291992 18.58984375 91.23046875 C17.51798828 91.22853516 16.44613281 91.22660156 15.34179688 91.22460938 C14.21837891 91.21236328 13.09496094 91.20011719 11.9375 91.1875 C10.24657227 91.1865332 10.24657227 91.1865332 8.52148438 91.18554688 C0.14013317 91.14013317 0.14013317 91.14013317 -1 90 C-1.10050214 87.23598592 -1.13616075 84.49692774 -1.12939453 81.73242188 C-1.13114685 80.86581436 -1.13289917 79.99920685 -1.13470459 79.1063385 C-1.13912425 76.22712227 -1.13618472 73.34796691 -1.1328125 70.46875 C-1.13348551 68.47717273 -1.1344555 66.48559554 -1.13571167 64.49401855 C-1.1371888 60.31420105 -1.13503361 56.13440487 -1.13037109 51.95458984 C-1.1246738 46.58397474 -1.12795273 41.2134096 -1.13394356 35.84279633 C-1.13754877 31.7285728 -1.13641077 27.61436121 -1.13381577 23.50013733 C-1.13314639 21.51929214 -1.1339753 19.53844588 -1.13629532 17.55760193 C-1.13882119 14.79423124 -1.13498218 12.03094266 -1.12939453 9.26757812 C-1.13141876 8.44052872 -1.13344299 7.61347931 -1.13552856 6.7613678 C-1.11426244 1.11426244 -1.11426244 1.11426244 0 0 Z " fill="#FDFDFD" transform="translate(410,199)"/>
<path d="M0 0 C0.99 0 1.98 0 3 0 C4.45706382 2.91412764 4.23076161 5.54896936 4.33178711 8.80371094 C4.35383524 9.50648918 4.37588337 10.20926743 4.39859962 10.93334198 C4.46900126 13.28355054 4.53036898 15.63386559 4.58984375 17.984375 C4.61154066 18.80054039 4.63323757 19.61670578 4.65559196 20.45760345 C5.15544835 39.83150919 4.91777268 59.18684765 4.60510254 78.56176758 C4.518995 83.99517798 4.44300801 89.42873839 4.3661108 94.86228561 C4.30631284 99.08184574 4.2450428 103.30135939 4.17811584 107.52081299 C4.15445913 109.05716694 4.13097231 110.59352351 4.10766602 112.12988281 C4.09620324 112.86709187 4.08474047 113.60430092 4.07293034 114.36384964 C4.01965404 118.14510455 3.99698868 121.92383573 4.01950073 125.70544434 C4.02351111 126.47146343 4.0275215 127.23748253 4.0316534 128.02671432 C4.04130352 129.47115361 4.05538338 130.9155735 4.07492161 132.35991287 C4.1035083 136.45623389 3.68547156 139.88717064 3 144 C8.94 144 14.88 144 21 144 C21 144.33 21 144.66 21 145 C14.73 145 8.46 145 2 145 C0.08429896 97.03905617 0.67787694 48.96915638 2 1 C1.34 0.67 0.68 0.34 0 0 Z " fill="#F3F3F2" transform="translate(511,46)"/>
<path d="M0 0 C0.33 0 0.66 0 1 0 C1.00331015 0.55216187 1.00662029 1.10432373 1.01003075 1.67321777 C1.0916668 15.18145193 1.18400609 28.68957761 1.28752708 42.19766235 C1.33727562 48.73038651 1.38360608 55.26309615 1.421875 61.79589844 C1.45900048 68.11132643 1.50543109 74.42662624 1.55806351 80.74194336 C1.57646367 83.14019501 1.59162343 85.53847398 1.60334396 87.93676758 C1.43813726 111.74867456 1.43813726 111.74867456 6.6875 134.8125 C9.12307243 141.63078271 9.12307243 141.63078271 8 145 C5.46843838 141.1664924 4.10286561 137.54338255 2.875 133.125 C2.54242187 131.95195312 2.20984375 130.77890625 1.8671875 129.5703125 C0.0439301 122.06374823 -0.13897366 114.97959504 -0.11352539 107.28149414 C-0.11367142 106.11979706 -0.11381744 104.95809998 -0.1139679 103.76119995 C-0.11327333 99.93583281 -0.10550227 96.11051485 -0.09765625 92.28515625 C-0.09579045 89.62715065 -0.09431809 86.96914775 -0.09336853 84.31114197 C-0.09026735 78.03919886 -0.08207039 71.7672733 -0.07201904 65.4953379 C-0.06082013 58.35142035 -0.05533795 51.20750193 -0.05032361 44.06357777 C-0.03988671 29.37570956 -0.02231087 14.68785509 0 0 Z " fill="#F4F3F3" transform="translate(626,16)"/>
<path d="M0 0 C0.33 0 0.66 0 1 0 C1.33 9.24 1.66 18.48 2 28 C20.60195146 28.27681819 20.60195146 28.27681819 39 26 C34.7931731 30.2068269 28.65016495 30.26266227 22.97265625 30.4140625 C21.68681641 30.45273438 20.40097656 30.49140625 19.07617188 30.53125 C17.73828582 30.56269499 16.40039511 30.59394259 15.0625 30.625 C13.69724244 30.66324342 12.33200736 30.7022987 10.96679688 30.7421875 C7.6446646 30.83609937 4.32253259 30.92177787 1 31 C-0.86277616 27.06782575 -1.18972695 24.15145715 -0.9765625 19.82421875 C-0.925 18.66728516 -0.8734375 17.51035156 -0.8203125 16.31835938 C-0.72363281 14.52108398 -0.72363281 14.52108398 -0.625 12.6875 C-0.56828125 11.46998047 -0.5115625 10.25246094 -0.453125 8.99804688 C-0.31194999 5.99807798 -0.1605635 2.9989834 0 0 Z " fill="#F0F0F0" transform="translate(346,128)"/>
<path d="M0 0 C4.4663241 6.69948615 3.11749579 15.68309402 3.0625 23.4375 C3.05798828 24.64599609 3.05347656 25.85449219 3.04882812 27.09960938 C3.03710145 30.06645789 3.02068896 33.0332027 3 36 C2.67 36 2.34 36 2 36 C1.03457982 31.88751617 0.80510037 27.9484843 0.68359375 23.73046875 C0.66281265 23.04946609 0.64203156 22.36846344 0.62062073 21.66682434 C0.55562122 19.50714492 0.49647288 17.34735154 0.4375 15.1875 C0.3942675 13.71678544 0.35065175 12.24608209 0.30664062 10.77539062 C0.19999141 7.18371283 0.09858651 3.59190918 0 0 Z " fill="#ECECEC" transform="translate(455,75)"/>
<path d="M0 0 C1.24716797 0.04833984 2.49433594 0.09667969 3.77929688 0.14648438 C5.07287109 0.20255859 6.36644531 0.25863281 7.69921875 0.31640625 C9.66858398 0.3947168 9.66858398 0.3947168 11.67773438 0.47460938 C14.91431614 0.60407265 18.15057296 0.73903167 21.38671875 0.87890625 C21.38671875 1.53890625 21.38671875 2.19890625 21.38671875 2.87890625 C17.16920593 2.92836738 12.95184707 2.96465452 8.73413086 2.98876953 C7.29953063 2.99882325 5.86495086 3.01246819 4.43041992 3.02978516 C2.36762437 3.05406174 0.3050999 3.06539544 -1.7578125 3.07421875 C-2.99893799 3.08469238 -4.24006348 3.09516602 -5.51879883 3.10595703 C-8.61328125 2.87890625 -8.61328125 2.87890625 -11.61328125 0.87890625 C-7.63889805 -0.08783561 -4.07990834 -0.16766747 0 0 Z " fill="#E9E9E9" transform="translate(644.61328125,251.12109375)"/>
<path d="M0 0 C2.64 0 5.28 0 8 0 C8 0.33 8 0.66 8 1 C5.36 1 2.72 1 0 1 C0 0.67 0 0.34 0 0 Z " fill="#FFFFFF" transform="translate(463,199)"/>
<path d="M0 0 C4 1 4 1 4 1 Z " fill="#FFFFFF" transform="translate(611,199)"/>
<path d="" fill="#FFFFFF" transform="translate(0,0)"/>
<path d="" fill="#FFFFFF" transform="translate(0,0)"/>
</svg>
